<svg enable-background="new 0 0 242 166.9" height="166.9" viewBox="0 0 242 166.9" width="242" xmlns="http://www.w3.org/2000/svg" xmlns:xlink="http://www.w3.org/1999/xlink"><clipPath id="a"><path d="m185-26h242v166.9h-242z"/></clipPath><g clip-path="url(#a)"><path d="m50.8 109h-9l-3.2-3.2v-61.9l3.2-3.2h9z" fill="#ffe12a"/><path d="m192.1 40.8h6.8l3.2 3.2v61.8l-3.1 3.2h-6.8z" fill="#ffe12a"/><path d="m191.8 166.9h-11.1v-148.1c-1.8-2-3.3-3.7-5-5.5l-2-2.2h-105.2l-2 2.2c-1.6 1.8-3.1 3.5-5 5.5v148.1h-11v-152.4l1.4-1.6c2.5-2.8 4.4-4.8 6.4-7.1l5.3-5.8h115.2l5.3 5.9c2 2.3 3.9 4.3 6.4 7.1l1.4 1.6z"/></g></svg>