<svg enable-background="new 0 0 51.1 72.2" height="72.2" viewBox="0 0 51.1 72.2" width="51.1" xmlns="http://www.w3.org/2000/svg" xmlns:xlink="http://www.w3.org/1999/xlink"><clipPath id="a"><path d="m0 0h51.1v72.2h-51.1z"/></clipPath><g clip-path="url(#a)" fill="#a3a3a3"><path d="m3.7 31.7h-2.7l-1-1v-19l1-1h2.8v21z"/><path d="m48.1 10.8h2.1l1 1v19l-1 1h-2.1z"/><path d="m42 5.7 1.3 1.3v58.2l-1.1 1.1-.2.2h-32.2l-1.3-1.3v-58.2l.2-.2 1.1-1.1zm2.7-5.7h-37.5l-3.5 3.4v65.3l3.4 3.4h37.5l3.4-3.4v-65.3z"/><path d="m14.8 31.9c-1.1 0-2.1-.9-2.1-2.1v-4.1c0-2.7 2.2-4.8 4.8-4.8h4.1c1.1 0 2.1.9 2.1 2.1 0 1.1-.9 2.1-2.1 2.1h-4.1c-.4 0-.7.3-.7.7v4.1c.1 1-.8 2-2 2"/><path d="m38.2 31.9c-1.1 0-2.1-.9-2.1-2.1v-4.1c0-.4-.3-.7-.7-.7h-4.1c-1.1 0-2.1-.9-2.1-2.1 0-1.1.9-2.1 2.1-2.1h4.1c2.7 0 4.8 2.2 4.8 4.8v4.1c.1 1.2-.8 2.2-2 2.2"/><path d="m21.7 48.4h-4.1c-2.7 0-4.8-2.2-4.8-4.8v-4.1c0-1.1.9-2.1 2.1-2.1s2.1.9 2.1 2.1v4.1c0 .4.3.7.7.7h4.1c1.1 0 2.1.9 2.1 2.1-.1 1.1-1 2-2.2 2z"/><path d="m35.5 48.4h-4.1c-1.1 0-2.1-.9-2.1-2.1 0-1.1.9-2.1 2.1-2.1h4.1c.4 0 .7-.3.7-.7v-4.1c0-1.1.9-2.1 2.1-2.1 1.1 0 2.1.9 2.1 2.1v4.1c-.1 2.7-2.2 4.9-4.9 4.9"/></g></svg>