<svg enable-background="new 0 0 270.1 214.3" height="214.3" viewBox="0 0 270.1 214.3" width="270.1" xmlns="http://www.w3.org/2000/svg" xmlns:xlink="http://www.w3.org/1999/xlink"><clipPath id="a"><path d="m0 0h270.1v214.3h-270.1z"/></clipPath><g clip-path="url(#a)"><path d="m59.1 129.5-23.6-24.4c6.2-4.6 12.5-10 19.4-14.4 38-24.9 78.7-29.1 121.5-14.8 1.6.6 2.9 1.6 4 2.9 9.4 12.2 20.2 17.7 35.2 20.5 2.5.5 6.4 4 8.9 5.6l-24.5 23.5c-19.2-18-42.9-27.6-70.1-27.5s-50.9 9.6-70.8 28.6" fill="#adadad"/><path d="m22.8 91.2-22.8-23.6c20.7-20.2 45.9-35.1 73.6-43.7 33.5-10.5 67.3-11.5 101.8-3.3-5.1 10.1-7 21.5-5.6 32.6-55.5-12.5-104.4-.4-147 38" fill="#adadad"/><path d="m224.6 0c25.2.1 45.6 20.6 45.5 45.9-.1 25.2-20.6 45.6-45.9 45.5-25.2-.1-45.6-20.6-45.5-45.9 0-.1 0-.2 0-.2.2-25.2 20.7-45.4 45.9-45.3m-26.1 29.2 16.6 16.5-16.4 16.1 9.4 9.5 16.2-16.4 16.1 16.1 9.7-9.7-16.9-16.3 16.6-15.8-9-9.5-16.8 17.1-16.5-16.7z" fill="#f00"/><g fill="#adadad"><path d="m165.6 165.6c-20.5-18.7-51.9-18.4-72 .6l-21.8-22.6c26.8-28.5 81.6-33.8 116.3-.2z"/><path d="m109.1 193.3c.2-11.5 9.6-20.7 21.2-20.6 11.4.2 20.6 9.4 20.6 20.8 0 11.5-9.3 20.9-20.8 20.9s-20.9-9.3-20.9-20.8c-.1-.1-.1-.2-.1-.3"/></g></g></svg>