<svg enable-background="new 0 0 293 72.2" height="72.2" viewBox="0 0 293 72.2" width="293" xmlns="http://www.w3.org/2000/svg" xmlns:xlink="http://www.w3.org/1999/xlink"><clipPath id="a"><path d="m0 0h51.1v72.2h-51.1z"/></clipPath><g fill="#a3a3a3"><g enable-background="new" transform="translate(-32 -192.002)"><path d="m101.9 239.7c-2.5-2-3.7-4.8-3.8-8.5h7.5c0 2 .6 3.4 1.8 4.2s2.9 1.2 5.3 1.2c3.7 0 5.6-1.3 5.6-3.8 0-1.1-.4-1.9-1.2-2.5-.8-.5-2.4-1-4.7-1.4l-2.7-.5c-7.3-1.2-10.9-4.6-10.9-10.3 0-3 1.1-5.3 3.3-7.1 2.2-1.7 5.4-2.6 9.5-2.6 4.4 0 7.7.9 10 2.8s3.5 4.5 3.7 7.9h-7.4c-.1-1.6-.6-2.8-1.6-3.5s-2.5-1.1-4.6-1.1c-3.3 0-5 1.1-5 3.3 0 1.1.4 1.9 1.2 2.5s2.3 1.1 4.3 1.5l2.8.5c4 .7 6.8 1.8 8.6 3.4s2.7 3.8 2.7 6.6c0 3.3-1.2 5.9-3.7 7.7s-5.9 2.7-10.2 2.7c-4.5 0-8-1-10.5-3z"/><path d="m133 238.1c-3-3.1-4.5-7.3-4.5-12.5 0-5.3 1.5-9.4 4.4-12.5s6.9-4.6 11.9-4.6c4 0 7.5 1.1 10.3 3.2 2.9 2.2 4.6 5.3 5.2 9.2h-7.9c-.5-1.8-1.4-3.3-2.7-4.3s-3-1.5-4.9-1.5c-2.6 0-4.7.9-6.1 2.7s-2.1 4.4-2.1 7.7.7 5.9 2.1 7.7 3.5 2.7 6.1 2.7c2 0 3.7-.6 5.2-1.7 1.4-1.2 2.3-2.8 2.7-4.9h7.8c-.5 4.2-2.2 7.5-5 9.8-2.9 2.3-6.4 3.5-10.6 3.5-5 .1-8.9-1.4-11.9-4.5z"/><path d="m185.3 242-1.9-5.7h-13.6l-1.9 5.7h-8l12.1-32.8h9.2l12.3 32.8zm-13.4-12.2h9.2l-1.9-5.6c-.6-1.7-1.5-4.4-2.8-8.3-1.6 5-2.5 7.8-2.7 8.3z"/><path d="m217 209.2h7.4v32.8h-8.4l-8-13.1c-2.5-4.1-4.2-7.1-5.1-8.9.1 4.2.2 9.2.2 15.1v6.9h-7.4v-32.8h8.4l8 13.1c2.3 3.8 4 6.8 5.1 9-.1-4.3-.2-9.3-.2-15.2z"/><path d="m250.6 209.2h7.4v32.8h-8.4l-8-13.1c-2.5-4.1-4.2-7.1-5.1-8.9.1 4.2.2 9.2.2 15.1v6.9h-7.4v-32.8h8.4l8 13.1c2.3 3.8 4 6.8 5.1 9-.1-4.3-.2-9.3-.2-15.2z"/><path d="m288 216.2h-17.3v5.9h15.7v6.5h-15.7v6.4h17.3v6.9h-25v-32.8h25z"/><path d="m318.6 238.5c0 1.5.3 2.7.9 3.5h-8c-.5-.9-.8-2.1-.8-3.6l-.1-3.7c-.1-1.8-.5-3.1-1.2-3.8-.8-.7-2-1-3.6-1h-6.3v12.1h-7.8v-32.8h15.5c3.8 0 6.8.9 8.8 2.6s3.1 4 3.1 6.9c0 3.8-1.8 6.4-5.3 7.8 1.7.6 2.9 1.4 3.5 2.5.7 1.1 1 2.7 1.1 4.8zm-19.2-14.4h6.9c1.5 0 2.7-.4 3.5-1.1.8-.8 1.2-1.8 1.2-3.2 0-2.9-1.6-4.3-4.9-4.3h-6.7z"/></g><g clip-path="url(#a)"><path d="m3.7 31.7h-2.7l-1-1v-19l1-1h2.8v21z"/><path d="m48.1 10.8h2.1l1 1v19l-1 1h-2.1z"/><path d="m42 5.7 1.3 1.3v58.2l-1.1 1.1-.2.2h-32.2l-1.3-1.3v-58.2l.2-.2 1.1-1.1zm2.7-5.7h-37.5l-3.5 3.4v65.3l3.4 3.4h37.5l3.4-3.4v-65.3z"/><path d="m14.8 31.9c-1.1 0-2.1-.9-2.1-2.1v-4.1c0-2.7 2.2-4.8 4.8-4.8h4.1c1.1 0 2.1.9 2.1 2.1 0 1.1-.9 2.1-2.1 2.1h-4.1c-.4 0-.7.3-.7.7v4.1c.1 1-.8 2-2 2"/><path d="m38.2 31.9c-1.1 0-2.1-.9-2.1-2.1v-4.1c0-.4-.3-.7-.7-.7h-4.1c-1.1 0-2.1-.9-2.1-2.1 0-1.1.9-2.1 2.1-2.1h4.1c2.7 0 4.8 2.2 4.8 4.8v4.1c.1 1.2-.8 2.2-2 2.2"/><path d="m21.7 48.4h-4.1c-2.7 0-4.8-2.2-4.8-4.8v-4.1c0-1.1.9-2.1 2.1-2.1s2.1.9 2.1 2.1v4.1c0 .4.3.7.7.7h4.1c1.1 0 2.1.9 2.1 2.1-.1 1.1-1 2-2.2 2z"/><path d="m35.5 48.4h-4.1c-1.1 0-2.1-.9-2.1-2.1 0-1.1.9-2.1 2.1-2.1h4.1c.4 0 .7-.3.7-.7v-4.1c0-1.1.9-2.1 2.1-2.1 1.1 0 2.1.9 2.1 2.1v4.1c-.1 2.7-2.2 4.9-4.9 4.9"/></g></g></svg>