<svg enable-background="new 0 0 76 46" height="46" viewBox="0 0 76 46" width="76" xmlns="http://www.w3.org/2000/svg" xmlns:xlink="http://www.w3.org/1999/xlink"><clipPath id="a"><path d="m0 0h55.2v44.1h-55.2z"/></clipPath><g clip-path="url(#a)" fill="#707070" transform="translate(11.017)"><path d="m9.2 0h-7.4c-1 0-1.8.8-1.8 1.8v7.4c0 1 .8 1.9 1.8 1.9s1.9-.8 1.9-1.8v-.1-5.5h5.5c1 0 1.8-.9 1.8-1.9s-.8-1.8-1.8-1.8"/><path d="m53.3 33.1c-1 0-1.8.8-1.8 1.8v5.5h-5.5c-1 0-1.8.8-1.8 1.8s.8 1.8 1.8 1.8h7.4c1 0 1.8-.8 1.8-1.8v-7.4c0-.9-.9-1.7-1.9-1.7z"/><path d="m53.3 0h-7.3c-1 0-1.8.9-1.8 1.9s.8 1.8 1.8 1.8h5.5v5.5c0 1 .8 1.8 1.8 1.8s1.8-.8 1.8-1.8v-7.4c.1-1-.8-1.8-1.8-1.8"/><path d="m9.2 40.5h-5.5v-5.5c0-1-.9-1.8-1.9-1.8s-1.8.8-1.8 1.8v7.4c0 1 .8 1.8 1.8 1.8h7.4c1 0 1.8-.9 1.8-1.9s-.8-1.8-1.8-1.8"/><path d="m7.4 7.4h3.7v29.4h-3.7z"/><path d="m14.7 7.4h3.7v22.1h-3.7z"/><path d="m22.1 7.4h3.7v22.1h-3.7z"/><path d="m29.4 7.4h3.7v29.4h-3.7z"/><path d="m36.8 7.4h3.7v22.1h-3.7z"/><path d="m44.1 7.4h3.7v29.4h-3.7z"/><path d="m14.7 33.1h3.7v3.7h-3.7z"/><path d="m22.1 33.1h3.7v3.7h-3.7z"/><path d="m36.8 33.1h3.7v3.7h-3.7z"/></g></svg>