<svg enable-background="new 0 0 65.2 115.2" height="115.2" viewBox="0 0 65.2 115.2" width="65.2" xmlns="http://www.w3.org/2000/svg" xmlns:xlink="http://www.w3.org/1999/xlink"><clipPath id="a"><path d="m0 0h65.2v115.2h-65.2z"/></clipPath><g clip-path="url(#a)" fill="#a3a3a3"><path d="m52.8 65.2c-1.1 0-2.1.2-3.1.6-1-3.6-4.3-6.1-8-6.1-1.1 0-2.1.2-3.1.6-1.2-4.4-5.8-7.1-10.2-5.9-.2.1-.4.1-.6.2v-14.8c-.1-4.6-3.8-8.3-8.4-8.2-4.5 0-8.2 3.7-8.2 8.2v30.9h-2.9c-4.6 0-8.3 3.7-8.3 8.3v15.4c0 8.7 4.9 16.6 12.6 20.5.4.2.8.3 1.2.3h38.9c.7 0 1.4-.3 2-.8 4.1-4.1 6.4-9.6 6.4-15.4v-25.5c0-4.6-3.7-8.3-8.3-8.3m2.7 33.8c0 3.9-1.4 7.7-4 10.6h-37c-5.6-3-9-8.9-9-15.2v-15.3c0-1.5 1.2-2.8 2.8-2.8h2.8v11.9c0 1.5 1.2 2.8 2.8 2.8s2.8-1.2 2.8-2.8v-48.4c0-1.5 1.2-2.8 2.8-2.8s2.8 1.2 2.8 2.8v39.3c0 1.5 1.2 2.8 2.8 2.8s2.8-1.2 2.8-2.8v-16.7c0-1.5 1.2-2.8 2.8-2.8s2.8 1.2 2.8 2.8v16.7c0 1.5 1.2 2.8 2.8 2.8s2.8-1.2 2.8-2.8v-11.2c0-1.5 1.2-2.8 2.8-2.8s2.8 1.2 2.8 2.8v11.1c0 1.5 1.2 2.8 2.8 2.8s2.8-1.2 2.8-2.8v-5.6c0-1.5 1.2-2.8 2.8-2.8s2.8 1.2 2.8 2.8z"/><path d="m59.4 0h-52.5c-3.2 0-5.8 2.6-5.9 5.8v38.7c0 3.2 2.6 5.8 5.8 5.8h9.8v-5.9h-9.6v-38.5h52.3v38.5h-37.1v5.9h37.2c3.2 0 5.8-2.6 5.8-5.8v-38.7c0-3.2-2.6-5.8-5.8-5.8"/></g></svg>