<svg enable-background="new 0 0 458 54" height="54" viewBox="0 0 458 54" width="458" xmlns="http://www.w3.org/2000/svg"><g fill="#a3a3a3" transform="translate(-30 -199)"><g enable-background="new"><path d="m112.5 239.3c-2.6-2.2-3.9-5.5-3.9-9.8v-20.3h7.8v20.4c0 2.1.6 3.7 1.7 4.8s2.7 1.6 4.8 1.6 3.6-.5 4.8-1.6 1.7-2.7 1.7-4.8v-20.4h7.8v20.3c0 4.2-1.3 7.5-3.8 9.8s-6 3.5-10.5 3.5c-4.3-.1-7.7-1.2-10.4-3.5zm7.6-32 4-6.6h7.8l-6.2 6.6z"/><path d="m149.4 235.1h15v6.9h-22.8v-32.8h7.8z"/><path d="m188.5 209.2v6.9h-10.1v25.9h-7.8v-25.8h-10v-6.9h27.9z"/><path d="m191.4 242v-32.8h7.8v32.8z"/><path d="m228.8 209.2h11.6v32.8h-7.4v-9.6c0-6.1.1-11.4.3-15.8-.6 2.2-1.3 4.7-2.2 7.5l-5.7 18h-6.3l-5.7-18c-.7-2.2-1.4-4.6-2.2-7.4.2 5.2.2 10.4.2 15.8v9.6h-7.4v-32.8h11.6l4.3 14.1c.6 2 1.3 4.7 2.3 8.1.7-2.9 1.5-5.7 2.2-8.3z"/><path d="m248.7 238c-3.1-3.2-4.6-7.3-4.6-12.4s1.5-9.3 4.6-12.4 7.1-4.7 12.1-4.7 9 1.6 12.1 4.7c3.1 3.2 4.6 7.3 4.6 12.4s-1.5 9.3-4.6 12.4-7.1 4.7-12.1 4.7-9-1.5-12.1-4.7zm12.1-2c2.6 0 4.7-.9 6.3-2.8 1.6-1.8 2.4-4.3 2.4-7.6s-.8-5.8-2.4-7.6-3.7-2.8-6.3-2.8-4.7.9-6.3 2.8c-1.6 1.8-2.4 4.3-2.4 7.6s.8 5.8 2.4 7.6c1.6 1.9 3.7 2.8 6.3 2.8z"/><path d="m283.1 239.7c-2.5-2-3.7-4.8-3.8-8.5h7.5c0 2 .6 3.4 1.8 4.2s2.9 1.2 5.3 1.2c3.7 0 5.6-1.3 5.6-3.8 0-1.1-.4-1.9-1.2-2.5s-2.4-1-4.7-1.4l-2.7-.5c-7.3-1.2-10.9-4.6-10.9-10.3 0-3 1.1-5.3 3.3-7.1 2.2-1.7 5.4-2.6 9.5-2.6 4.4 0 7.7.9 10 2.8 2.3 1.8 3.5 4.5 3.7 7.9h-7.4c-.1-1.6-.6-2.8-1.6-3.5s-2.5-1.1-4.6-1.1c-3.3 0-5 1.1-5 3.3 0 1.1.4 1.9 1.2 2.5s2.3 1.1 4.3 1.5l2.8.5c4 .7 6.8 1.8 8.6 3.4s2.7 3.8 2.7 6.6c0 3.3-1.2 5.9-3.7 7.7s-5.9 2.7-10.2 2.7c-4.5 0-8-1-10.5-3z"/><path d="m323.7 239.7c-2.5-2-3.7-4.8-3.8-8.5h7.5c0 2 .6 3.4 1.8 4.2s2.9 1.2 5.3 1.2c3.7 0 5.6-1.3 5.6-3.8 0-1.1-.4-1.9-1.2-2.5s-2.4-1-4.7-1.4l-2.7-.5c-7.3-1.2-10.9-4.6-10.9-10.3 0-3 1.1-5.3 3.3-7.1 2.2-1.7 5.4-2.6 9.5-2.6 4.4 0 7.7.9 10 2.8 2.3 1.8 3.5 4.5 3.7 7.9h-7.4c-.1-1.6-.6-2.8-1.6-3.5s-2.5-1.1-4.6-1.1c-3.3 0-5 1.1-5 3.3 0 1.1.4 1.9 1.2 2.5s2.3 1.1 4.3 1.5l2.8.5c4 .7 6.8 1.8 8.6 3.4s2.7 3.8 2.7 6.6c0 3.3-1.2 5.9-3.7 7.7s-5.9 2.7-10.2 2.7c-4.5 0-8-1-10.5-3z"/><path d="m354.8 238.1c-3-3.1-4.5-7.3-4.5-12.5 0-5.3 1.5-9.4 4.4-12.5s6.9-4.6 11.9-4.6c4 0 7.5 1.1 10.3 3.2 2.9 2.2 4.6 5.3 5.2 9.2h-7.9c-.5-1.8-1.4-3.3-2.7-4.3s-3-1.5-4.9-1.5c-2.6 0-4.7.9-6.1 2.7s-2.1 4.4-2.1 7.7.7 5.9 2.1 7.7 3.5 2.7 6.1 2.7c2 0 3.7-.6 5.2-1.7 1.4-1.2 2.3-2.8 2.7-4.9h7.8c-.5 4.2-2.2 7.5-5 9.8-2.9 2.3-6.4 3.5-10.6 3.5-5 .1-8.9-1.4-11.9-4.5z"/><path d="m407.1 242-1.9-5.7h-13.6l-1.9 5.7h-8l12.1-32.8h9.2l12.3 32.8zm-13.4-12.2h9.2l-1.9-5.6c-.6-1.7-1.5-4.4-2.8-8.3-1.6 5-2.5 7.8-2.7 8.3z"/><path d="m438.8 209.2h7.4v32.8h-8.4l-8-13.1c-2.5-4.1-4.2-7.1-5.1-8.9.1 4.2.2 9.2.2 15.1v6.9h-7.4v-32.8h8.4l8 13.1c2.3 3.8 4 6.8 5.1 9-.1-4.3-.2-9.3-.2-15.2z"/><path d="m453.3 239.7c-2.5-2-3.7-4.8-3.8-8.5h7.5c0 2 .6 3.4 1.8 4.2s2.9 1.2 5.3 1.2c3.7 0 5.6-1.3 5.6-3.8 0-1.1-.4-1.9-1.2-2.5s-2.4-1-4.7-1.4l-2.7-.5c-7.3-1.2-10.9-4.6-10.9-10.3 0-3 1.1-5.3 3.3-7.1 2.2-1.7 5.4-2.6 9.5-2.6 4.4 0 7.7.9 10 2.8 2.3 1.8 3.5 4.5 3.7 7.9h-7.4c-.1-1.6-.6-2.8-1.6-3.5s-2.5-1.1-4.6-1.1c-3.3 0-5 1.1-5 3.3 0 1.1.4 1.9 1.2 2.5s2.3 1.1 4.3 1.5l2.8.5c4 .7 6.8 1.8 8.6 3.4s2.7 3.8 2.7 6.6c0 3.3-1.2 5.9-3.7 7.7s-5.9 2.7-10.2 2.7c-4.5 0-8-1-10.5-3z"/></g><path d="m34.4 217.3h41.7v27.4h-41.7zm8-8.6h41.7v26.3h-3.6v-22.5h-38.1zm-4.4-4.7v8.6h-8v36.8h50.5v-9.6h8v-35.8z"/></g></svg>