<svg enable-background="new 0 0 220.9 50.4" height="50.4" viewBox="0 0 220.9 50.4" width="220.9" xmlns="http://www.w3.org/2000/svg" xmlns:xlink="http://www.w3.org/1999/xlink"><clipPath id="a"><path d="m0 0h220.9v50.4h-220.9z"/></clipPath><g clip-path="url(#a)" fill="#a5a7aa" opacity=".328"><path d="m190.6 25.2-13.6 13.4c-.6.5-.7 1.4-.2 2.1.1.1.1.2.2.2 5 5 6.7 6.7 10.8 8.6 3.4 1.5 7.4 1.1 10.3-1.2 2.7-2.4 14.3-14.1 14.3-14.1.6-.5.7-1.5.2-2.1-.1-.1-.1-.1-.2-.2l-1.7-1.7c-.5-.6-1.5-.7-2.1-.2-.1.1-.1.1-.2.2 0 0-8.9 9-12.1 12.2-3.3 3.3-6 2.4-7.9 1.3-1.4-.9-2.8-2-3.9-3.3-.5-.6-.7-.8-.7-.8l14.7-14.4-14.5-14.4s.2-.2.7-.8c1.2-1.3 2.5-2.4 3.9-3.3 1.8-1.1 4.6-2 7.9 1.3 3.2 3.2 19.9 20.1 19.9 20.1.5.6 1.5.7 2.1.2.1-.1.1-.1.2-.2l1.7-1.7c.6-.5.7-1.5.2-2.1-.1-.1-.1-.1-.2-.2 0 0-19.5-19.5-22.1-22-3-2.2-6.9-2.7-10.3-1.2-4.2 1.8-5.9 3.5-10.9 8.5-.6.5-.7 1.5-.2 2.1.1.1.1.2.2.2z"/><path d="m17.3 13.7h2.7c.7 0 1.2.4 1.2 1v.3c-1.8 7.5-4.1 14.8-7.1 22h-7c-3-7.1-5.3-14.4-7.1-22 0-.1 0-.2 0-.3 0-.6.5-1 1.2-1h3.2c.8 0 1.4.6 1.5 1.3 1.2 5.8 2.8 11.6 4.8 17.2 2.1-5.6 3.8-11.4 5.1-17.2 0-.8.7-1.4 1.5-1.3"/><path d="m32.8 35.6c.1.7-.4 1.3-1.1 1.3-.1 0-.2 0-.2 0h-2.7c-.7.1-1.3-.4-1.4-1.1 0-.1 0-.1 0-.2v-20.6c-.1-.7.5-1.3 1.1-1.3h.2 2.7c.7-.1 1.3.4 1.3 1.1v.2 20.6z"/><path d="m50.7 18.3v17.4c.1.7-.4 1.3-1.1 1.3-.1 0-.2 0-.2 0h-2.7c-.7.1-1.3-.4-1.3-1.1 0-.1 0-.2 0-.3v-17.3h-5c-.6.1-1.2-.4-1.3-1 0-.1 0-.2 0-.3v-2c-.1-.7.4-1.3 1.1-1.3h.3 15.3c.7-.1 1.3.4 1.3 1.1v.2 1.9c.1.7-.4 1.3-1.1 1.3-.1 0-.2 0-.3 0h-5z"/><path d="m73.8 31.9h-8c-.3 1.4-.7 2.6-.9 3.8-.1.8-.8 1.3-1.5 1.3h-2.7c-.7 0-1.2-.4-1.2-1 0-.1 0-.2.1-.4 1-4.1 1.4-5.4 2.4-8.6 1.3-4.6 2.9-9 4.8-13.4h6.6c1.9 4.3 3.6 8.8 4.9 13.3 1 3.2 1.4 4.5 2.4 8.6 0 .1.1.2.1.4 0 .6-.5 1-1.2 1h-3.2c-.8 0-1.5-.5-1.6-1.3-.4-1.1-.7-2.4-1-3.7m-6.8-4.7h5.6c-.7-3.2-1.7-6.3-2.8-9.3-.5 1.6-1.7 5.3-2.8 9.3"/><path d="m92.3 31.1v4.5c.1.7-.4 1.3-1.1 1.3-.1 0-.2 0-.2 0h-2.7c-.7.1-1.3-.4-1.3-1.1 0-.1 0-.2 0-.2v-20.6c-.1-.7.4-1.3 1.1-1.3h.2 7.2c5.3 0 8.7 2.4 8.7 8.5 0 6.5-4.1 9-9.2 9h-2.7zm0-12.8v8.3h2.2c2.9 0 4.1-1 4.1-4.4 0-3.1-1.2-3.9-4.1-3.9z"/><path d="m119.4 30h-3.3v5.6c.1.7-.4 1.3-1.1 1.3-.1 0-.2 0-.2 0h-2.7c-.7.1-1.3-.4-1.3-1.1 0-.1 0-.2 0-.2v-20.6c-.1-.7.4-1.3 1.1-1.3h.2 7.2c5.3 0 8.7 1.7 8.7 7.8.1 2.8-1.3 5.4-3.8 6.8 1.9 1.6 4.1 5.3 4.9 7.4.1.2.1.3.1.5 0 .5-.5.8-1.1.8h-3.3c-.8 0-1.5-.6-1.6-1.3-.8-1.9-2.3-4.7-3.8-5.7m-3.2-11.7v7.3h2.2c2.9 0 4.1-1 4.1-3.9s-1.2-3.4-4.1-3.4z"/><path d="m134.3 25.7v-1c0-7.1 3.5-11.3 10.7-11.3 7.1 0 10.7 4.1 10.7 11.3v1c0 7.1-3.5 11.5-10.7 11.5s-10.7-4.4-10.7-11.5m15.8 0v-1c0-4-1.1-6.7-5.1-6.7s-5.1 2.7-5.1 6.7v1c0 4 1.1 6.9 5.1 6.9s5.1-2.9 5.1-6.9"/></g></svg>